<svg width="38" height="38" viewBox="0 0 38 38" fill="none" xmlns="http://www.w3.org/2000/svg">
<path fill-rule="evenodd" clip-rule="evenodd" d="M1.00195 1.00107H36.0011V36.0003H1.00195V1.00107Z" fill="#F8BC2E"/>
<path fill-rule="evenodd" clip-rule="evenodd" d="M10.5017 13.3587V10.463C18.8076 10.463 25.5392 17.1984 25.5392 25.5004H22.6413C22.6413 18.8063 17.1979 13.3587 10.5017 13.3587ZM10.5017 18.6233V15.7276C15.9014 15.7276 20.2741 20.1051 20.2741 25.5004H17.3766C17.3766 21.7082 14.2916 18.6233 10.5017 18.6233ZM10.5017 23.728C10.5017 22.7492 11.2952 21.9556 12.2741 21.9556C13.2529 21.9556 14.0465 22.7492 14.0465 23.728C14.0465 24.7068 13.2529 25.5004 12.2741 25.5004C11.2952 25.5004 10.5017 24.7068 10.5017 23.728Z" fill="white"/>
</svg>
